<?xml version="1.0" encoding="utf-8"?>
<!-- Generator: Adobe Illustrator 24.3.0, SVG Export Plug-In . SVG Version: 6.00 Build 0)  -->
<svg version="1.1" xmlns="http://www.w3.org/2000/svg" xmlns:xlink="http://www.w3.org/1999/xlink" x="0px" y="0px"
	 viewBox="0 0 500 500" style="enable-background:new 0 0 500 500;" xml:space="preserve">
<style type="text/css">
	.st0{fill:#2D2B2B;}
	.st1{fill:#FFFFFF;}
	.st2{fill:#2D2B2B;stroke:#231F20;stroke-width:7;stroke-miterlimit:10;}
</style>
<g id="Layer_1">
</g>
<g id="Layer_2">
	<ellipse class="st0" cx="293.1" cy="220" rx="22.9" ry="21.8"/>
</g>
<g id="Layer_3">
	<circle class="st1" cx="293.1" cy="249.5" r="34.7"/>
</g>
<g id="Layer_4">
	<g>
		<path class="st0" d="M408.8,249.5v0.5c0,15.4-2.2,30.2-6.2,44.2c-1.6,5.5-3.5,10.9-5.6,16.1c0.1-0.4,0.2-0.7,0.3-1.1
			c1.8-24.5-5-39-16.6-62.7c-0.4-0.8-0.7-1.5-1.1-2.3c-11.9-24.3-44.5-56-73.7-64.7c-69.7-20.7-141,12.1-159.2,73.2
			C128.5,314,170.2,380.4,240,401.2c11.2,3.3,22.4,5.3,33.4,5.9c-0.1,0-0.2,0-0.2,0c-3.8,0.5-7.7,1-11.5,1.2
			c-0.8,0.1-1.6,0.1-2.4,0.1c-3.1,0.2-6.1,0.3-9.2,0.3c-0.3,0-0.7,0-1.1,0C161.7,408.2,91.2,337.4,91.2,250
			c0-87.7,71.1-158.8,158.8-158.8c46.7,0,88.7,20.2,117.8,52.3c4.1,4.6,8,9.4,11.6,14.4c11.8,16.5,20.5,35.4,25.3,55.8
			C407.3,225.2,408.8,237.2,408.8,249.5z"/>
	</g>
</g>
<g id="Layer_6">
	<path class="st0" d="M465.8,297.9l-68.9,12.5c2.2-5.2,4-10.6,5.6-16.1c4.1-14,6.2-28.9,6.2-44.2v-0.5L465.8,297.9z"/>
</g>
<g id="Layer_5">
	<path class="st2" d="M397.2,309.3c1.8-24.5-5-39-16.6-62.7c-0.4-0.8-0.7-1.5-1.1-2.3c-11.9-24.3-44.5-56-73.7-64.7
		c-69.7-20.7-141,12.1-159.2,73.2C128.5,314,170.2,380.4,240,401.2c11.2,3.3,22.4,5.3,33.4,5.9c-0.1,0-0.2,0-0.2,0
		c-3.8,0.5-7.7,1-11.5,1.2c-0.8,0.1-1.6,0.1-2.4,0.1c-3.1,0.2-6.1,0.3-9.2,0.3c-0.3,0-0.7,0-1.1,0C161.7,408.2,91.2,337.4,91.2,250
		c0-87.7,71.1-158.8,158.8-158.8c46.7,0,88.7,20.2,117.8,52.3c4.1,4.6,8,9.4,11.6,14.4c11.8,16.5,20.5,35.4,25.3,55.8
		c2.7,11.5,4.1,23.5,4.2,35.8l57,48.4l-68.9,12.5C397,310,397.1,309.7,397.2,309.3z"/>
</g>
</svg>
